<svg width="30" height="20" viewBox="0 0 30 20" fill="none" xmlns="http://www.w3.org/2000/svg">
<path d="M10.8092 0.0379841C13.5682 -0.00971133 16.4529 0.0322206 19.2184 0.0312908C18.7071 1.03503 17.9242 2.31988 17.358 3.30637L13.8618 9.39507L10.0143 16.0975C9.42182 17.1286 8.78114 18.3187 8.16444 19.3144C8.11284 19.3628 7.94489 19.4892 7.8739 19.4934C5.83941 19.6147 3.78195 19.4962 1.74034 19.5357C1.27041 19.5445 0.126182 19.7063 0.00150495 19.0518C-0.0226217 18.9249 0.25021 18.3712 0.327471 18.2359C1.33726 16.4685 2.35048 14.7025 3.37152 12.9415L7.12142 6.4076L9.30723 2.59141C9.73676 1.83205 10.3273 0.722223 10.8092 0.0379841Z" fill="white"/>
<path d="M23.4446 7.47632C23.6236 7.64255 24.0387 8.42758 24.1744 8.6655L25.6815 11.298L28.4954 16.1819C28.9644 16.9959 29.4404 17.8067 29.896 18.6281C30.1443 19.0757 29.9146 19.2938 29.5604 19.5313C28.3768 19.5634 27.0724 19.5369 25.8791 19.5378C24.9019 19.536 23.1266 19.5973 22.1402 19.4871C21.8459 19.4546 21.1914 18.1706 20.9687 17.7843C20.389 16.8002 19.8298 15.8049 19.2905 14.798C19.5904 14.124 20.3713 12.847 20.7744 12.1404C21.6539 10.5798 22.5441 9.02484 23.4446 7.47632Z" fill="white"/>
<path d="M19.2227 0.0304749C20.1538 0.0331712 26.6229 -0.0723097 26.9455 0.0942524C27.0901 0.16905 27.1775 0.279458 27.2184 0.436397C27.2546 0.577066 27.2272 0.733912 27.177 0.867143C27.0013 1.33717 26.6805 1.80548 26.4309 2.24231L24.8992 4.91112C24.4296 5.74746 23.9527 6.57939 23.4678 7.40681C22.0179 5.0186 20.6326 2.45708 19.2227 0.0304749Z" fill="white"/>
</svg>
